<svg id="Layer_1" data-name="Layer 1" xmlns="http://www.w3.org/2000/svg" viewBox="0 0 109.81 109.81"><defs><style>.cls-1{fill:#fff;}.cls-2{fill:#5865f1;}</style></defs><circle class="cls-1" cx="54.9" cy="54.9" r="54.9"/><path class="cls-2" d="M922.74,548.83v-1c.34-.17.24-.49.26-.77a63.72,63.72,0,0,1,10.65-30.53,3.41,3.41,0,0,1,1.57-1.34,64.6,64.6,0,0,1,11-3.62c3.54-.8,3.56-.82,5.09,2.45a1.14,1.14,0,0,0,1.43.76,54,54,0,0,1,13-.24c1,.09,2.13.53,2.93.18s1-1.75,1.5-2.63a2,2,0,0,0,.16-.33,1.09,1.09,0,0,1,1.45-.73,64,64,0,0,1,13.8,4.28,2.74,2.74,0,0,1,1.2,1A63.69,63.69,0,0,1,997,542.24a13.6,13.6,0,0,0,.68,3.84v11.49c-.41.34-.45.9-.93,1.24a63.44,63.44,0,0,1-17.55,8.82,1,1,0,0,1-1.35-.46c-1.1-1.62-2.11-3.29-3.08-5-.4-.69-.23-1,.47-1.29q2.18-.93,4.29-2c1.14-.57,1.1-.82.05-1.54-.56-.38-.94-.05-1.38.13a44.2,44.2,0,0,1-35.89,0,3.17,3.17,0,0,0-.69-.29,1.45,1.45,0,0,0-1.49.88c-.28.47.44.58.75.74,1.37.7,2.74,1.41,4.17,2,.87.36,1.07.71.58,1.55q-1.35,2.32-2.81,4.57a1.35,1.35,0,0,1-1.85.62A66,66,0,0,1,925.45,560c-1.44-1-2.77-1.86-2.49-3.88,0-.08-.14-.18-.22-.26v-1.25A19.44,19.44,0,0,0,922.74,548.83Zm56.71-6.72a7.84,7.84,0,0,0-2.32-5.6,6.2,6.2,0,0,0-8.48-.26,8,8,0,0,0,.43,12.23,5.89,5.89,0,0,0,4.21,1.19C976.89,549.27,979.46,546.11,979.45,542.11ZM954.56,542a10.18,10.18,0,0,0-.08-1.07,7,7,0,0,0-4.62-5.86,5.87,5.87,0,0,0-6.43,1.53,8.09,8.09,0,0,0-.55,10.61,6.19,6.19,0,0,0,9.35.7A7.77,7.77,0,0,0,954.56,542Z" transform="translate(-905.4 -484.79)"/></svg>