<svg id="Layer_1" data-name="Layer 1" xmlns="http://www.w3.org/2000/svg" viewBox="0 0 239.57 195.92"><defs><style>.cls-1{fill:#211d1e;}.cls-2{fill:#00bbe8;}.cls-3{fill:#222122;}.cls-4{fill:#01b9e5;}.cls-5{fill:#fefefe;}</style></defs><rect class="cls-1" x="2.97" y="97.39" width="37.98" height="96.46" rx="6.61"/><path class="cls-2" d="M874.88,545.93v83.23H850.12V545.93Z" transform="translate(-840.54 -441.93)"/><path class="cls-1" d="M950.22,635.78a6.59,6.59,0,0,1-5.33-2.71,6.63,6.63,0,0,1-5.34,2.71H914.79a6.61,6.61,0,0,1-6.61-6.62v-54c0-11.24,3.51-20.46,10.44-27.41s16.12-10.49,27.33-10.49,20.21,3.53,26.47,10.48c6.09,6.76,9.17,16.27,9.17,28.27v53.17a6.61,6.61,0,0,1-6.61,6.62ZM943.38,574Z" transform="translate(-840.54 -441.93)"/><path class="cls-2" d="M914.79,629.16v-54q0-14.21,8.51-22.75T946,543.86q14.09,0,21.56,8.29T975,576v53.17H950.22V576q0-7.62-5.42-7.62-5.25,0-5.25,7.62v53.17Z" transform="translate(-840.54 -441.93)"/><path class="cls-1" d="M1042.33,637.85c-11.3,0-20.2-3.52-26.47-10.48-6.08-6.75-9.17-16.26-9.17-28.27V545.93a6.62,6.62,0,0,1,6.62-6.61h24.75a6.6,6.6,0,0,1,5.34,2.7,6.6,6.6,0,0,1,5.34-2.7h24.75a6.62,6.62,0,0,1,6.62,6.61v54c0,11.28-3.51,20.52-10.44,27.47S1053.54,637.85,1042.33,637.85Zm2.58-36.76Z" transform="translate(-840.54 -441.93)"/><path class="cls-2" d="M1073.49,545.93v54q0,14.26-8.5,22.8t-22.66,8.54q-14.08,0-21.55-8.3t-7.47-23.84V545.93h24.75V599q0,7.62,5.43,7.62,5.25,0,5.25-7.62V545.93Z" transform="translate(-840.54 -441.93)"/><path class="cls-3" d="M840.54,515.5c.23-11.74,2.64-23.1,6.21-34.23,2.28-7.14,4.79-14.19,9.09-20.44.67-1-.07-1.24-.64-1.67a9.48,9.48,0,0,1,3.17-16.88,8.75,8.75,0,0,1,7.46,1.21,10.84,10.84,0,0,0,2.79,1.33,13.49,13.49,0,0,1,6.08,3.95,2.54,2.54,0,0,0,1.52,1c6.9.91,9.87,5.5,11,11.78a57.28,57.28,0,0,1,.13,16.64c-1.1,9.92-2.15,19.85-1.83,29.86,0,1.19.31,1.84,1.54,2s2.39,1.3,3.37.84.82-2,1.2-3.08c4.57-12.85,18.38-19.89,31.26-18.13a29.36,29.36,0,0,1,15.41,6.58c.42.36.91.92,1.36.05,2-3.77,5.42-5.32,9.27-6.23s7.69-1.33,11.58-.25a7,7,0,0,1,3.73,2.14c.8,1,1.52.74,2.44.35,3.45-1.51,7-2.35,10.78-1.51a9.91,9.91,0,0,1,3.74,1.53,1.92,1.92,0,0,0,2.25.08c6.07-2.8,11.93-2.11,17.56,1.26.31.19.55.5.86.68.64.36,1,1.71,1.71,1.21,1-.68,2.14-1.41,2.09-3a69.78,69.78,0,0,1,.57-11.66,13.13,13.13,0,0,1,10.6-10.92,2.63,2.63,0,0,0,1.85-1.38,14.12,14.12,0,0,1,6.84-5.14,5.38,5.38,0,0,1,6.11,1.69,7.12,7.12,0,0,0,5,2.36c5.62.56,11.56,4,12.79,11.5.58,3.56,2,6.88,2.72,10.39.15.76.69.93,1.32,1.11,11.47,3.2,18.58,10.9,22.16,21.95a67.29,67.29,0,0,1,3.55,18.93,8.83,8.83,0,0,1-3.59,7.59,18.91,18.91,0,0,1-13,4,1.57,1.57,0,0,1-.76-.1c-2.58-1.63-4.85-.2-7.32.5-11.24,3.2-21.41,1.2-30.18-6.76a20.74,20.74,0,0,1-3.23-4c-1-1.46-1-1.46-2,.06-2.6,4-5.62,7.52-9.75,10-7.18,4.22-15.09,3.22-21.39-2.68-5.15-4.82-8-10.91-9.81-17.61a9.32,9.32,0,0,1-.23-.91c-.18-1.12-.69-.92-1.35-.38a14.56,14.56,0,0,0-4.66,6.88,37.4,37.4,0,0,0-1.55,8.1,8.81,8.81,0,0,1-5.35,7.67,19.27,19.27,0,0,1-15.19.5,5.91,5.91,0,0,1-2.64-1.62c-1.05-1.29-2.06-1.33-3.61-.76-3.56,1.33-7.25,2-10.91.17a1.78,1.78,0,0,0-1.62.18c-11.26,4.74-21.74,3.19-31.53-3.89-.51-.37-.91-.85-1.58-.17-3.81,3.89-8.75,5.26-13.92,6a70.82,70.82,0,0,1-17.45.67c-6.14-.65-12.19-1.73-17.36-5.46-5-3.55-7-8.71-8-14.49A56,56,0,0,1,840.54,515.5ZM881.64,470a33.23,33.23,0,0,0-.7-8.84c-1.23-4.76-3.24-5.68-7.61-5.57a1.62,1.62,0,0,1-1.78-1,7.72,7.72,0,0,0-6-4.41,2.85,2.85,0,0,1-2.33-1.14,3.24,3.24,0,0,0-4.72-.29,3.31,3.31,0,0,0-.29,4.73,3.43,3.43,0,0,0,4.76.31c1.68-1.48,2.74-1.52,4.57-.18,2.22,1.62,2.22,2.48,0,3.85-4.57,2.8-7.42,7.05-9.64,11.73a121.92,121.92,0,0,0-9.37,29.45c-1.53,8-2.61,16-1.34,24.17.77,4.87,2.14,9.36,6.67,12.08a27.78,27.78,0,0,0,10.48,3.24A60.78,60.78,0,0,0,887.41,537c3.14-.74,6-2.16,7.49-5.28a1.64,1.64,0,0,0,.1-1.75,26.46,26.46,0,0,1-3.26-10.17,2,2,0,0,0-1-1.6,19.7,19.7,0,0,0-8.39-3c-2.25-.33-2.7-.65-2.78-2.74a175.13,175.13,0,0,1,.4-22.91C880.55,483,881.7,476.56,881.64,470ZM1073,529.74a74.82,74.82,0,0,0-2.62-13.75c-2.7-9.81-8.27-17-18.5-19.85a22.91,22.91,0,0,0-14.41.49c-8.8,3.29-14.12,9.5-14.75,19.07-.46,7,1.82,13.08,7.29,17.73,4.18,3.56,9.21,4.81,14.53,5.11a21.17,21.17,0,0,0,14.26-4.35c.74-.55,1.21-.8,1.55.31a3.09,3.09,0,0,0,2.45,2.16c2.41.54,4.63-.32,6.74-1.3C1072.73,533.9,1073.23,533,1073,529.74ZM896,517.8a22.41,22.41,0,0,0,2.15,8.77c2.91,6.15,7.82,9.68,14.39,11.19,7.16,1.65,13.8.86,19.76-3.67.71-.54,1-.54,1.45.35a3.59,3.59,0,0,0,3.93,2.4,18.45,18.45,0,0,0,5.51-1.56c1.38-.66,1.86-1.38,1.48-3a162.2,162.2,0,0,1-3.16-19.84c-.16-1.47,0-3-.85-4.39-6.46-11-18.77-15.51-30.49-11.16C901.57,500.13,896,507.92,896,517.8Zm86.87-7.4a37.91,37.91,0,0,0,1.27,10.34c1.37,5.23,3.56,10,7.45,14,5.28,5.31,11.49,5.54,17.14.59,4.27-3.75,7-8.56,9.12-13.74a3.81,3.81,0,0,0,.52-1.92,25,25,0,0,1,3.58-16,1.63,1.63,0,0,0-.47-2.51,15.9,15.9,0,0,0-9.87-3.16,3.64,3.64,0,0,0-3.88,3.11c-.33,1.52-.78,3-1.14,4.52-1,4.24-1.54,8.6-3.06,12.71-.45,1.21-.91,2.86-2.34,2.76s-1.76-1.9-2-3.19a45,45,0,0,1-.52-12.42,21.27,21.27,0,0,0-.06-5,3,3,0,0,0-1.63-2.3,13.84,13.84,0,0,0-7.54-1.39c-3.11.16-5,1.67-5.61,4.77A41.55,41.55,0,0,0,982.89,510.4ZM961,503.94a36.26,36.26,0,0,0-.66-6.61,2,2,0,0,0-1.64-1.82c-3.8-.85-7.43-.12-11,1.17-2.06.74-2.93,2.16-2.76,4.45.4,5.5.89,11,1.65,16.44.88,6.27,1.69,12.57,3.64,18.64a3.11,3.11,0,0,0,1.87,2.11,14.89,14.89,0,0,0,8.74.28,4,4,0,0,0,3.5-4.26,19.93,19.93,0,0,1,.34-2.63c1.16-8.25,4.84-14.79,12.62-18.53a1.78,1.78,0,0,0,1.12-1.95,37.06,37.06,0,0,1,.88-10.07c.51-2.14-.16-3.37-2.21-4.24-2.47-1-4.82-.4-7.12.43A19.45,19.45,0,0,0,961,503.94Zm64.61-30.49a2.91,2.91,0,0,1-.61-2c0-.58-.26-1.08-.86-1.11s-1,.49-1,1.13a9.79,9.79,0,0,0,.23,2.16c.31,1.26.18,1.65-1.29,1.19-4.77-1.48-10.45,2.28-10.78,7.09-.22,3.26-.25,6.53-.46,9.79-.08,1.25.23,1.63,1.57,1.71,4.37.27,8.49,1.42,11.91,4.31.75.63,1.12.53,1.81,0a31,31,0,0,1,19.41-6.81c1.34,0,1.49-.37,1.26-1.61-.56-3.18-2.17-6.06-2.53-9.3-.71-6.42-7.44-8.62-12.38-7.08-1.07.33-1.5.45-1.1-.85.18-.62.1-1.16-.63-1.35a1,1,0,0,0-1.38.89c-.2.89-.33,1.8-.5,2.72a12.75,12.75,0,0,1-.3-4.64c0-.55.17-1.21-.63-1.38s-1.07.32-1.36,1C1025.39,470.62,1025.84,472,1025.65,473.45Z" transform="translate(-840.54 -441.93)"/><path class="cls-4" d="M881.65,470c.05,6.52-1.1,12.94-1.71,19.41a175.13,175.13,0,0,0-.4,22.91c.08,2.09.53,2.41,2.78,2.74a19.7,19.7,0,0,1,8.39,3,2,2,0,0,1,1,1.6A26.46,26.46,0,0,0,895,529.92a1.64,1.64,0,0,1-.1,1.75c-1.53,3.12-4.35,4.54-7.49,5.28a60.78,60.78,0,0,1-23.07,1.21,27.78,27.78,0,0,1-10.48-3.24c-4.53-2.72-5.9-7.21-6.67-12.08-1.27-8.17-.19-16.19,1.34-24.17a121.92,121.92,0,0,1,9.37-29.45c2.22-4.68,5.07-8.93,9.64-11.73,2.22-1.37,2.22-2.23,0-3.85-1.83-1.34-2.89-1.3-4.57.18a3.43,3.43,0,0,1-4.76-.31,3.31,3.31,0,0,1,.29-4.73,3.24,3.24,0,0,1,4.72.29,2.85,2.85,0,0,0,2.33,1.14,7.72,7.72,0,0,1,6,4.41,1.62,1.62,0,0,0,1.78,1c4.37-.11,6.38.81,7.61,5.57A33.66,33.66,0,0,1,881.65,470Zm-9.86,1.43a15.57,15.57,0,0,0-.31-2.38c-.34-1.21-.82-2.41-2.23-2.75s-2.37.47-3.24,1.41a13.08,13.08,0,0,0-2.9,6.11c-.68,2.79-1.13,5.6-.3,8.46a3.38,3.38,0,0,0,2.77,2.62,3,3,0,0,0,3-1.54,8.08,8.08,0,0,0,1-1.58A31.87,31.87,0,0,0,871.79,471.47Zm8.5,3.65a14.77,14.77,0,0,0,0-2.49c-.32-1.75-.76-3.53-2.74-4.17-1.24-.4-3,.85-4,2.88a28.69,28.69,0,0,0-2.37,10.08,8.16,8.16,0,0,0,.38,3.53,3,3,0,0,0,5,1.36,7.59,7.59,0,0,0,1.89-2.63A18.65,18.65,0,0,0,880.29,475.12Z" transform="translate(-840.54 -441.93)"/><path class="cls-4" d="M1073,529.74c.22,3.22-.28,4.16-3.46,5.62-2.11,1-4.33,1.84-6.74,1.3a3.09,3.09,0,0,1-2.45-2.16c-.34-1.11-.81-.86-1.55-.31a21.17,21.17,0,0,1-14.26,4.35c-5.32-.3-10.35-1.55-14.53-5.11-5.47-4.65-7.75-10.73-7.29-17.73.63-9.57,6-15.78,14.75-19.07a22.91,22.91,0,0,1,14.41-.49c10.23,2.84,15.8,10,18.5,19.85A74.82,74.82,0,0,1,1073,529.74Zm-26.78-4c4.72,0,7.88-3.09,7.83-7.58,0-4-3.72-7.4-7.91-7.38a7.78,7.78,0,0,0-7.88,7.57A7.63,7.63,0,0,0,1046.23,525.77Z" transform="translate(-840.54 -441.93)"/><path class="cls-4" d="M896,517.8c0-9.88,5.55-17.67,14.17-20.88,11.72-4.35,24,.12,30.49,11.16.81,1.38.69,2.92.85,4.39a162.2,162.2,0,0,0,3.16,19.84c.38,1.59-.1,2.31-1.48,3a18.45,18.45,0,0,1-5.51,1.56,3.59,3.59,0,0,1-3.93-2.4c-.41-.89-.74-.89-1.45-.35-6,4.53-12.6,5.32-19.76,3.67-6.57-1.51-11.48-5-14.39-11.19A22.41,22.41,0,0,1,896,517.8Zm23.65,8c4.72,0,7.84-3.07,7.79-7.59a7.91,7.91,0,0,0-15.8.22A7.7,7.7,0,0,0,919.67,525.77Z" transform="translate(-840.54 -441.93)"/><path class="cls-4" d="M982.89,510.4a41.55,41.55,0,0,1,1-8.81c.64-3.1,2.5-4.61,5.61-4.77a13.84,13.84,0,0,1,7.54,1.39,3,3,0,0,1,1.63,2.3,21.27,21.27,0,0,1,.06,5,45,45,0,0,0,.52,12.42c.25,1.29.48,3.08,2,3.19s1.89-1.55,2.34-2.76c1.52-4.11,2.05-8.47,3.06-12.71.36-1.51.81-3,1.14-4.52a3.64,3.64,0,0,1,3.88-3.11,15.9,15.9,0,0,1,9.87,3.16,1.63,1.63,0,0,1,.47,2.51,25,25,0,0,0-3.58,16,3.81,3.81,0,0,1-.52,1.92c-2.14,5.18-4.85,10-9.12,13.74-5.65,5-11.86,4.72-17.14-.59-3.89-3.91-6.08-8.73-7.45-14A37.91,37.91,0,0,1,982.89,510.4Z" transform="translate(-840.54 -441.93)"/><path class="cls-4" d="M961,503.94a19.45,19.45,0,0,1,9-6.59c2.3-.83,4.65-1.47,7.12-.43,2.05.87,2.72,2.1,2.21,4.24a37.06,37.06,0,0,0-.88,10.07,1.78,1.78,0,0,1-1.12,1.95c-7.78,3.74-11.46,10.28-12.62,18.53a19.93,19.93,0,0,0-.34,2.63,4,4,0,0,1-3.5,4.26,14.89,14.89,0,0,1-8.74-.28,3.11,3.11,0,0,1-1.87-2.11c-1.95-6.07-2.76-12.37-3.64-18.64-.76-5.46-1.25-10.94-1.65-16.44-.17-2.29.7-3.71,2.76-4.45,3.55-1.29,7.18-2,11-1.17a2,2,0,0,1,1.64,1.82A36.26,36.26,0,0,1,961,503.94Z" transform="translate(-840.54 -441.93)"/><path class="cls-4" d="M1025.65,473.45c.19-1.41-.26-2.83.37-4.2.29-.64.59-1.12,1.36-1s.65.83.63,1.38a12.75,12.75,0,0,0,.3,4.64c.17-.92.3-1.83.5-2.72a1,1,0,0,1,1.38-.89c.73.19.81.73.63,1.35-.4,1.3,0,1.18,1.1.85,4.94-1.54,11.67.66,12.38,7.08.36,3.24,2,6.12,2.53,9.3.23,1.24.08,1.57-1.26,1.61a31,31,0,0,0-19.41,6.81c-.69.56-1.06.66-1.81,0-3.42-2.89-7.54-4-11.91-4.31-1.34-.08-1.65-.46-1.57-1.71.21-3.26.24-6.53.46-9.79.33-4.81,6-8.57,10.78-7.09,1.47.46,1.6.07,1.29-1.19a9.79,9.79,0,0,1-.23-2.16c0-.64.33-1.16,1-1.13s.88.53.86,1.11A2.91,2.91,0,0,0,1025.65,473.45Zm2.54,14.9c.63,2.13,1.4,1.71,2.34.95a12.25,12.25,0,0,1,4.1-2.09c2.63-.8,5.26-1.32,7.94-.26,1.13.45,1.21-.12,1.15-1a7.55,7.55,0,0,0-6.26-7c-3.5-.52-7.61,1.76-8.77,4.86-.31.84-.49,1.36.85,1a1.55,1.55,0,0,1,1.94,1.53,1.6,1.6,0,0,1-1.33,1.83c-1,.16-2,0-2.27-1.28a6.64,6.64,0,0,0-5.33-5.6,8.13,8.13,0,0,0-8.7,2.7c-.57.65-1,1.2.42,1.41a1.52,1.52,0,0,1,1.17,2.16,1.63,1.63,0,0,1-2.07,1.17c-.27-.05-.51-.43-.82-.11-.07,2.17-.06,2.2,1.87,1.39a15.66,15.66,0,0,1,11.71-.32C1027.23,490.16,1028.07,490.63,1028.19,488.35Z" transform="translate(-840.54 -441.93)"/><path class="cls-5" d="M871.79,471.47a31.87,31.87,0,0,1-2.24,10.35,8.08,8.08,0,0,1-1,1.58,3,3,0,0,1-3,1.54,3.38,3.38,0,0,1-2.77-2.62c-.83-2.86-.38-5.67.3-8.46a13.08,13.08,0,0,1,2.9-6.11c.87-.94,1.83-1.75,3.24-1.41s1.89,1.54,2.23,2.75A15.57,15.57,0,0,1,871.79,471.47Zm-4.27,5.2c.15.9.57,1.66,1.66,1.59a1.59,1.59,0,0,0,1.58-1.74,1.52,1.52,0,0,0-1.66-1.64C868.06,474.93,867.58,475.61,867.52,476.67Z" transform="translate(-840.54 -441.93)"/><path class="cls-5" d="M880.29,475.12a18.65,18.65,0,0,1-1.89,8.56,7.59,7.59,0,0,1-1.89,2.63,3,3,0,0,1-5-1.36,8.16,8.16,0,0,1-.38-3.53,28.69,28.69,0,0,1,2.37-10.08c1-2,2.79-3.28,4-2.88,2,.64,2.42,2.42,2.74,4.17A14.77,14.77,0,0,1,880.29,475.12Zm-4,3.58c.16.84.57,1.56,1.68,1.49a1.57,1.57,0,0,0,1.56-1.76,1.52,1.52,0,0,0-1.68-1.61C876.77,476.88,876.29,477.58,876.24,478.7Z" transform="translate(-840.54 -441.93)"/><path class="cls-3" d="M1046.23,525.77a7.63,7.63,0,0,1-8-7.39,7.78,7.78,0,0,1,7.88-7.57c4.19,0,7.86,3.42,7.91,7.38C1054.11,522.68,1051,525.74,1046.23,525.77Z" transform="translate(-840.54 -441.93)"/><path class="cls-3" d="M919.67,525.77a7.7,7.7,0,0,1-8-7.37,7.91,7.91,0,0,1,15.8-.22C927.51,522.7,924.39,525.74,919.67,525.77Z" transform="translate(-840.54 -441.93)"/><path class="cls-5" d="M1028.19,488.35c-.12,2.28-1,1.81-2.06,1.41a15.66,15.66,0,0,0-11.71.32c-1.93.81-1.94.78-1.87-1.39.31-.32.55.06.82.11a1.63,1.63,0,0,0,2.07-1.17,1.52,1.52,0,0,0-1.17-2.16c-1.46-.21-1-.76-.42-1.41a8.13,8.13,0,0,1,8.7-2.7,6.64,6.64,0,0,1,5.33,5.6c.24,1.32,1.27,1.44,2.27,1.28a1.6,1.6,0,0,0,1.33-1.83,1.55,1.55,0,0,0-1.94-1.53c-1.34.32-1.16-.2-.85-1,1.16-3.1,5.27-5.38,8.77-4.86a7.55,7.55,0,0,1,6.26,7c.06.89,0,1.46-1.15,1-2.68-1.06-5.31-.54-7.94.26a12.25,12.25,0,0,0-4.1,2.09C1029.59,490.06,1028.82,490.48,1028.19,488.35Z" transform="translate(-840.54 -441.93)"/><path class="cls-4" d="M867.52,476.67c.06-1.06.54-1.74,1.58-1.79a1.52,1.52,0,0,1,1.66,1.64,1.59,1.59,0,0,1-1.58,1.74C868.09,478.33,867.67,477.57,867.52,476.67Z" transform="translate(-840.54 -441.93)"/><path class="cls-4" d="M876.24,478.7c0-1.12.53-1.82,1.56-1.88a1.52,1.52,0,0,1,1.68,1.61,1.57,1.57,0,0,1-1.56,1.76C876.81,480.26,876.4,479.54,876.24,478.7Z" transform="translate(-840.54 -441.93)"/></svg>