<svg id="Layer_1" data-name="Layer 1" xmlns="http://www.w3.org/2000/svg" viewBox="0 0 109.81 109.81"><defs><style>.cls-1{fill:#ff4500;}.cls-2{fill:#fff;}</style></defs><circle class="cls-1" cx="54.9" cy="54.9" r="54.9"/><path class="cls-2" d="M977,513.11c-3.65-.78-7.33-1.59-11-2.34a1,1,0,0,0-.74.55c-1.18,5.36-2.31,10.73-3.49,16.27,7.69.47,14.89,2.34,21.26,6.8a8.13,8.13,0,0,1,13.41,3.91,8.19,8.19,0,0,1-3.67,8.9,1.49,1.49,0,0,0-.72,1.09c.53,7.35-3,12.68-8.51,16.91a35.47,35.47,0,0,1-16.28,6.61,43.38,43.38,0,0,1-21.81-1.9c-5.89-2.13-11.06-5.32-14.6-10.68A16.07,16.07,0,0,1,928,548.67a1.31,1.31,0,0,0-.64-1.5,8,8,0,1,1,9.1-13.23l.46.35c1.76-1,3.43-2,5.19-2.85a40.45,40.45,0,0,1,15.47-3.77c.83,0,1.14-.35,1.3-1.15,1.2-5.84,2.44-11.66,3.67-17.49.31-1.48,1-1.88,2.47-1.56,3.94.84,7.87,1.66,11.8,2.53a1.05,1.05,0,0,0,1.31-.48,5.61,5.61,0,0,1,6.79-2.13,5.83,5.83,0,0,1,3.6,6.38,5.89,5.89,0,0,1-5.19,4.82,5.82,5.82,0,0,1-5.83-3.68C977.3,514.35,977.16,513.76,977,513.11Zm-29.52,38.5a5.68,5.68,0,0,0,5.63-5.67,5.78,5.78,0,0,0-5.61-5.62,5.68,5.68,0,0,0-5.65,5.66A5.6,5.6,0,0,0,947.45,551.61Zm25.11,0a5.59,5.59,0,0,0,5.61-5.65,5.69,5.69,0,0,0-5.56-5.64,5.78,5.78,0,0,0-5.7,5.64A5.67,5.67,0,0,0,972.56,551.61Zm-11.63,13.63c1-.12,3-.25,5-.61a14.43,14.43,0,0,0,7.31-3.31,1.49,1.49,0,0,0,.37-2.16c-.53-.62-1.36-.56-2.2,0a14.74,14.74,0,0,1-2.82,1.69,23.53,23.53,0,0,1-12.4,1.27c-2.8-.41-5.52-1.12-7.73-3.09a1.31,1.31,0,0,0-2,.14,1.27,1.27,0,0,0,.22,2,21.14,21.14,0,0,0,3.5,2.23C953.25,564.82,956.58,565.17,960.93,565.24Z" transform="translate(-905.1 -484.79)"/></svg>