<svg id="Layer_1" data-name="Layer 1" xmlns="http://www.w3.org/2000/svg" viewBox="0 0 38.25 38.25"><defs><style>.cls-1{fill:#4dd1ff;}.cls-2{fill:#fff;}</style></defs><circle class="cls-1" cx="19.13" cy="19.13" r="19.13"/><path class="cls-2" d="M961.19,546l-3.63,3.37a9.2,9.2,0,0,1-.2-1.09c0-1.68-.53-3.56,0-5s2.22-2.35,3.43-3.46q3.6-3.3,7.24-6.53a6.52,6.52,0,0,1,.87-.57l-.3-.44a8.53,8.53,0,0,0-1.15.51q-6.39,4-12.76,8.06a1.76,1.76,0,0,1-1.67.24c-1.63-.55-3.29-1-4.92-1.55a5.38,5.38,0,0,1-1.17-.84c.37-.37.66-.89,1.1-1.07,2.62-1.06,5.28-2,7.92-3.07,5.08-2,10.15-3.92,15.24-5.83a2.56,2.56,0,0,1,1.86-.08c.77.43.51,1.35.36,2.09q-1.53,7.25-3.08,14.48c-.29,1.34-.57,2.68-.86,4-.37,1.7-1.22,2-2.65,1C965,548.87,963.13,547.48,961.19,546Z" transform="translate(-941.18 -520.57)"/></svg>