<svg id="Layer_1" data-name="Layer 1" xmlns="http://www.w3.org/2000/svg" viewBox="0 0 1135.71 629.74"><defs><style>.cls-1{fill:#c69c6d;}.cls-2{fill:#fecb00;}.cls-3{fill:#066554;}.cls-4{fill:#e16a12;}.cls-5{fill:#fefefe;}.cls-6{fill:#fff;}.cls-7{fill:#00bbe8;}.cls-8{fill:#01b9e5;}</style></defs><path class="cls-1" d="M1283.35,595.15a301.54,301.54,0,0,1-15.49,56.24,315,315,0,0,1-137.95,161.46,312,312,0,0,1-85.73,33.75A301.3,301.3,0,0,1,1006.1,853c-6.19.66-12.42,1-18.66,1.3-4.82.2-9.63.43-14.45.41a346.77,346.77,0,0,1-38.9-2.57,302.38,302.38,0,0,1-69.57-16.84,315.37,315.37,0,0,1-99.86-59.84c-.6-.53-1.27-1-1.9-1.48,0-1.71,1.34-2.7,2.3-3.78,9.62-10.82,19-21.82,28.67-32.63,3.15-3.53,6.33-7,9.32-10.72,1.41-1.74,2.66-2.12,4.76-.84,5.49,3.35,11.59,2.2,15.7-2.65a12,12,0,0,0-.15-15.31,12.35,12.35,0,0,0-14.9-2.89,12.08,12.08,0,0,0-5.82,14.18,4.48,4.48,0,0,0,.45,1.26c2.38,3.22.68,5.47-1.53,7.93-8.5,9.43-16.79,19-25.15,28.59-4.18,4.77-8.43,9.48-12.54,14.32-.56.66-1.17,1.39-2.23,1.23a317.67,317.67,0,0,1-94.28-158.71c-2.59-10.44-3.92-21.11-5.66-31.7-1.92-11.73-2-23.57-2.75-35.38-.74-11.63.68-23.12,1.12-34.67.38-9.8,2.48-19.37,3.91-29,1-8.88,3.25-17.51,5.59-26.1,1.13-4.16,2.41-8.28,3.66-12.4l0-.13,2.37-7.45c2.49-6.57,4.74-13.22,7.55-19.66,1.8-4.13,3.62-8.25,5.54-12.32l124.33,64.63A178.42,178.42,0,0,0,802,505c-.21,1-.27,2.08-1.17,2.78.7,1.55.15,3.14-.13,4.67a141.25,141.25,0,0,0-2.25,26.41c.24,26.43,5.52,51.79,17,75.78a178.7,178.7,0,0,0,31.05,45.1A172.56,172.56,0,0,0,893.4,695a170.7,170.7,0,0,0,57.39,17.76,160.71,160.71,0,0,0,23.78,1.54c25.59-.62,50.15-5.82,73.39-16.95a176.34,176.34,0,0,0,48-33.78A173.66,173.66,0,0,0,1144.36,574c.2-1.09.29-2.28,1.22-3.09l.07-.06a5.28,5.28,0,0,1,3.42-.13q41.72,7.29,83.41,14.64,23.22,4.08,46.45,8.17C1280.48,593.82,1282.2,593.74,1283.35,595.15Z" transform="translate(-392.46 -224.92)"/><path class="cls-2" d="M1283.35,595.15,1145.59,571c-.6-1.5-.22-3,0-4.49a144.46,144.46,0,0,0,2.25-27.74c-.5-26.51-6-51.88-17.82-75.85a176.23,176.23,0,0,0-39.18-52.29,172.42,172.42,0,0,0-59.39-35.67,180.94,180.94,0,0,0-45.27-9.6c-3.64-.33-7.33.07-11-.63-1-.2-2.2-.11-2.68-1.39a14.55,14.55,0,0,1-.31-4.26q0-64.59,0-129.18c0-1.65-.39-3.42.87-4.87q14.16.6,28.29,1.44c11.2.67,22.2,2.78,33.21,4.59,13.76,2.25,27.15,6.16,40.34,10.69a314.9,314.9,0,0,1,113.39,68.12A125,125,0,0,1,1198.73,320c-.09,1.45-1.35,1.8-2.3,2.35q-25.62,15.17-51.17,30.4a20.1,20.1,0,0,0-1.89,1c-1.81,1.34-3.2.77-4.7-.65A11.57,11.57,0,0,0,1127,350.3c-5.23,1.46-9.12,7-8.62,12.21a12.2,12.2,0,0,0,11.53,11.4c5.28.41,10.66-3.52,12.11-8.76a11.15,11.15,0,0,0-.16-7.11c-.82-2.15,0-3.31,1.78-4.35,10.8-6.31,21.54-12.74,32.3-19.11,7.16-4.24,14.26-8.56,21.48-12.66.83-.47,1.59-1.25,2.7-.75a328,328,0,0,1,32.67,40.09c21.33,31.46,37.19,65.4,46.22,102.41a288.7,288.7,0,0,1,6.7,36.6q1.44,13,2.19,26c.38,6.7.55,13.4.33,20.08a314.3,314.3,0,0,1-2.48,32.71C1285,584.46,1284.32,589.83,1283.35,595.15Z" transform="translate(-392.46 -224.92)"/><path class="cls-3" d="M973.15,225V363.89c-2.26,1.29-4.79,1.21-7.24,1.28A173.06,173.06,0,0,0,856,410a173.61,173.61,0,0,0-36.59,46.56,5.9,5.9,0,0,1-1.85,2.58c-1.16.31-2.08-.35-3-.83C796.49,449,778.49,439.46,760.47,430c-8.06-4.24-16.1-8.52-24.2-12.67-13.43-6.89-26.7-14.07-40.15-20.91-.87-.45-1.81-.83-2.1-1.92A353.83,353.83,0,0,1,728.53,342a312.09,312.09,0,0,1,26.68-29.28c2.5-2.42,5-4.79,7.58-7.18,1.08-.44,1.91.2,2.73.69q17.41,10.32,34.81,20.64c7.37,4.38,14.74,8.78,22.15,13.09,2.6,1.52,3.21,2.3,2.4,5.3a11.77,11.77,0,0,0,8,14.62,12.06,12.06,0,0,0,15-7.84c1.75-4.9-.33-10.51-5.11-13.78a11.68,11.68,0,0,0-14.38,1.21c-2.09,2.06-3.64,1.8-5.81.5-14.8-8.85-29.66-17.58-44.47-26.42-3.83-2.29-7.71-4.5-11.51-6.85-.89-.54-2.28-.76-2.25-2.28a331.62,331.62,0,0,1,55.13-39.2c25.63-14.78,53-25,81.7-31.95,9.78-2.35,19.75-3.54,29.65-5.16,11.81-1.94,23.72-2.31,35.64-2.71C968.71,225.32,970.91,224.71,973.15,225Z" transform="translate(-392.46 -224.92)"/><path class="cls-4" d="M816.68,462.06c-1.28,2.52-2.49,5.08-3.62,7.65L688.73,405.08c1.68-3.57,3.43-7.11,5.29-10.6l99.57,52.14q11.85,6.21,23.68,12.44C817.87,460.22,817.15,461.14,816.68,462.06Z" transform="translate(-392.46 -224.92)"/><path class="cls-5" d="M764.38,304.41c6,3.59,11.88,7.22,17.85,10.77,13.81,8.23,27.66,16.4,41.46,24.66,1.54.93,2.4,1,3.76-.45a12.6,12.6,0,0,1,15.31-2.06,12.74,12.74,0,0,1-6.42,23.81,12.66,12.66,0,0,1-12.27-9.43,11.72,11.72,0,0,1,.37-7.64c.5-1.15.5-1.89-.74-2.63q-30.35-17.9-60.65-35.88a.72.72,0,0,0-.26,0q-15.37-9.21-30.77-18.41c-9.73-5.8-19.51-11.54-29.22-17.38a9.25,9.25,0,0,0-5-1.38q-132.18.06-264.36,0c-1,0-2.88.8-2.91-.63-.05-1.83,1.92-.88,2.93-.88q132.18-.09,264.35-.1a9.84,9.84,0,0,1,5.28,1.47q29.43,17.56,58.94,35C762.77,303.68,763.59,304,764.38,304.41Z" transform="translate(-392.46 -224.92)"/><path class="cls-5" d="M761.64,772.62c6.93-7.81,13.89-15.61,20.8-23.44S796,733.72,802.79,726c1-1.17,1.49-2,.49-3.65a12.66,12.66,0,0,1,3.17-16.78A12.76,12.76,0,0,1,823.94,724a12.51,12.51,0,0,1-17.12,2.16c-1.65-1.13-2.18-.11-3,.8Q786,747.29,768.15,767.65c-1.82,2.08-3.6,4.19-5.4,6.28q-16.21,18.42-32.44,36.85-12.94,14.7-25.84,29.45a4,4,0,0,1-3.4,1.56q-126.44,0-252.86,0c-.53,0-1.07,0-1.61,0-.37,0-.66-.16-.67-.62s.06-.91.64-.94c.8,0,1.61,0,2.41,0q125.35,0,250.71,0a5.68,5.68,0,0,0,4.79-2.12q27.71-31.73,55.54-63.36C760.61,774.07,761.1,773.32,761.64,772.62Z" transform="translate(-392.46 -224.92)"/><path class="cls-5" d="M1200.11,321.17q-18.36,10.8-36.7,21.61c-6.39,3.77-12.73,7.61-19.15,11.32-1.75,1-2.5,1.72-1.66,4.08,2.15,6.08-1.13,12.74-7,15.33a12.76,12.76,0,1,1,3.78-20.8c1,1,1.61,1.79,3.29.78,18.47-11.07,37-22,55.52-33a3.68,3.68,0,0,0,.58-.54c8.46-4.95,16.94-9.87,25.39-14.86q19.94-11.77,39.83-23.64a8.38,8.38,0,0,1,4.53-1.24q128.54,0,257.09.05c.86,0,2.56-.85,2.6.71,0,1.72-1.7.79-2.54.79q-128.14.09-256.28,0a10.7,10.7,0,0,0-5.78,1.54q-30.46,18.17-61,36.22C1201.72,320.06,1200.92,320.63,1200.11,321.17Z" transform="translate(-392.46 -224.92)"/><rect class="cls-6" x="449" y="302.92" width="42.91" height="108.97" rx="7.47"/><path class="cls-7" d="M876.9,535.31v94h-28v-94Z" transform="translate(-392.46 -224.92)"/><path class="cls-6" d="M962,636.81a7.44,7.44,0,0,1-6-3.06,7.44,7.44,0,0,1-6,3.06H922a7.47,7.47,0,0,1-7.47-7.47v-61c0-12.7,4-23.12,11.78-31s18.22-11.84,30.89-11.84,22.82,4,29.9,11.84c6.87,7.63,10.35,18.38,10.35,31.93v60.07a7.47,7.47,0,0,1-7.47,7.47ZM954.27,567Z" transform="translate(-392.46 -224.92)"/><path class="cls-7" d="M922,629.34v-61q0-16,9.61-25.69T957.19,533q15.9,0,24.34,9.37T990,569.27v60.07H962V569.27q0-8.61-6.13-8.61-5.93,0-5.93,8.61v60.07Z" transform="translate(-392.46 -224.92)"/><path class="cls-6" d="M1066.06,639.15c-12.77,0-22.83-4-29.9-11.84-6.87-7.63-10.36-18.37-10.36-31.93V535.31a7.48,7.48,0,0,1,7.47-7.47h28a7.47,7.47,0,0,1,6,3.06,7.48,7.48,0,0,1,6-3.06h28a7.48,7.48,0,0,1,7.47,7.47v61c0,12.75-4,23.19-11.79,31S1078.72,639.15,1066.06,639.15Zm2.91-41.53Z" transform="translate(-392.46 -224.92)"/><path class="cls-7" d="M1101.26,535.31v61q0,16.13-9.61,25.77t-25.59,9.64q-15.91,0-24.35-9.37t-8.44-26.93V535.31h28v60q0,8.61,6.13,8.61,5.93,0,5.92-8.61v-60Z" transform="translate(-392.46 -224.92)"/><path class="cls-6" d="M838.11,500.93c.25-13.26,3-26.08,7-38.66,2.58-8.06,5.42-16,10.27-23.09.75-1.1-.07-1.4-.72-1.88a10.71,10.71,0,0,1,3.57-19.07,9.89,9.89,0,0,1,8.43,1.36,12.21,12.21,0,0,0,3.16,1.5,15.38,15.38,0,0,1,6.87,4.46,2.83,2.83,0,0,0,1.71,1.13c7.79,1,11.15,6.21,12.44,13.3a64.66,64.66,0,0,1,.15,18.79c-1.25,11.22-2.43,22.43-2.07,33.74,0,1.34.35,2.08,1.74,2.25s2.69,1.46,3.8.95.94-2.28,1.37-3.48c5.16-14.51,20.76-22.47,35.3-20.48a33.21,33.21,0,0,1,17.42,7.43c.47.4,1,1,1.53.05,2.2-4.26,6.12-6,10.47-7s8.69-1.51,13.08-.29a7.85,7.85,0,0,1,4.22,2.42c.9,1.13,1.72.84,2.75.39,3.9-1.71,7.91-2.66,12.18-1.7a11.08,11.08,0,0,1,4.22,1.72,2.17,2.17,0,0,0,2.55.1c6.85-3.17,13.47-2.39,19.84,1.42.35.21.61.56,1,.76.72.41,1.12,1.94,1.93,1.37,1.1-.77,2.42-1.59,2.37-3.43a78.41,78.41,0,0,1,.64-13.18,14.82,14.82,0,0,1,12-12.33,3,3,0,0,0,2.1-1.56,15.87,15.87,0,0,1,7.72-5.8c2.54-1,5-.13,6.9,1.9a8,8,0,0,0,5.62,2.67c6.34.64,13.06,4.5,14.44,13,.66,4,2.27,7.77,3.08,11.74.17.86.78,1.05,1.49,1.25,13,3.62,21,12.32,25,24.8a75.78,75.78,0,0,1,4,21.39,10,10,0,0,1-4.06,8.57A21.36,21.36,0,0,1,1089,532a2,2,0,0,1-.87-.11c-2.91-1.85-5.48-.23-8.26.57-12.71,3.61-24.19,1.34-34.1-7.65a24,24,0,0,1-3.65-4.51c-1.1-1.65-1.09-1.65-2.22.07-2.94,4.46-6.34,8.49-11,11.23-8.11,4.77-17,3.65-24.16-3-5.82-5.44-9.07-12.33-11.08-19.9a9.54,9.54,0,0,1-.26-1c-.2-1.27-.78-1-1.52-.43a16.38,16.38,0,0,0-5.26,7.77,42.65,42.65,0,0,0-1.76,9.15,10,10,0,0,1-6,8.67,21.81,21.81,0,0,1-17.16.56,6.64,6.64,0,0,1-3-1.83c-1.19-1.46-2.33-1.51-4.08-.86-4,1.5-8.19,2.23-12.32.19a2,2,0,0,0-1.84.2c-12.71,5.36-24.55,3.6-35.62-4.39-.57-.42-1-1-1.78-.19-4.31,4.39-9.89,5.94-15.73,6.77a79.73,79.73,0,0,1-19.7.76c-6.94-.73-13.77-2-19.62-6.16-5.58-4-7.94-9.84-9-16.38A62.93,62.93,0,0,1,838.11,500.93Zm46.43-51.34a38.05,38.05,0,0,0-.79-10c-1.4-5.37-3.66-6.41-8.6-6.3a1.81,1.81,0,0,1-2-1.13,8.73,8.73,0,0,0-6.79-5,3.19,3.19,0,0,1-2.62-1.29,3.66,3.66,0,0,0-5.34-.32,3.75,3.75,0,0,0-.32,5.35,3.88,3.88,0,0,0,5.37.34c1.91-1.67,3.1-1.72,5.17-.2,2.51,1.83,2.51,2.8,0,4.35-5.15,3.16-8.37,8-10.88,13.24a137.44,137.44,0,0,0-10.58,33.28c-1.73,9-3,18.07-1.52,27.3.86,5.51,2.41,10.57,7.53,13.64,3.62,2.18,7.73,3,11.84,3.67a68.7,68.7,0,0,0,26.06-1.37c3.55-.84,6.73-2.44,8.46-6a1.86,1.86,0,0,0,.12-2,29.77,29.77,0,0,1-3.69-11.49,2.29,2.29,0,0,0-1.16-1.81,22.17,22.17,0,0,0-9.47-3.44c-2.55-.37-3.06-.73-3.15-3.1a199.58,199.58,0,0,1,.45-25.88C883.3,464.2,884.61,457,884.54,449.59ZM1100.72,517a84.6,84.6,0,0,0-3-15.54c-3-11.08-9.34-19.22-20.89-22.43a26,26,0,0,0-16.28.56c-9.94,3.71-15.95,10.74-16.66,21.54-.52,7.91,2,14.78,8.23,20,4.72,4,10.4,5.42,16.42,5.76a23.93,23.93,0,0,0,16.1-4.9c.84-.63,1.37-.92,1.75.35a3.5,3.5,0,0,0,2.77,2.43c2.72.62,5.23-.36,7.61-1.46C1100.4,521.72,1101,520.66,1100.72,517Zm-199.94-13.5a25.38,25.38,0,0,0,2.43,9.91c3.29,6.95,8.83,10.94,16.26,12.65,8.08,1.85,15.58,1,22.31-4.15.81-.61,1.18-.61,1.64.39.94,2,2.48,3,4.44,2.71a20.43,20.43,0,0,0,6.23-1.76c1.56-.74,2.1-1.55,1.67-3.35a182.39,182.39,0,0,1-3.57-22.41c-.18-1.67-.05-3.4-1-5C943.93,480.08,930,475,916.79,480,907.05,483.58,900.79,492.38,900.78,503.53Zm98.13-8.35a43.25,43.25,0,0,0,1.43,11.67c1.56,5.91,4,11.36,8.42,15.78,6,6,13,6.26,19.36.66,4.83-4.24,7.89-9.67,10.31-15.51a4.36,4.36,0,0,0,.58-2.18,28.09,28.09,0,0,1,4-18,1.86,1.86,0,0,0-.54-2.84,17.91,17.91,0,0,0-11.14-3.57,4.12,4.12,0,0,0-4.39,3.51c-.37,1.72-.88,3.4-1.29,5.11-1.14,4.79-1.73,9.71-3.45,14.35-.51,1.37-1,3.24-2.64,3.12s-2-2.14-2.28-3.6a51.54,51.54,0,0,1-.59-14,23.48,23.48,0,0,0-.06-5.62,3.36,3.36,0,0,0-1.84-2.6,15.58,15.58,0,0,0-8.52-1.57c-3.51.18-5.61,1.88-6.34,5.39A46.28,46.28,0,0,0,998.91,495.18Zm-24.69-7.3a40,40,0,0,0-.73-7.47,2.35,2.35,0,0,0-1.86-2.06c-4.29-1-8.39-.13-12.41,1.32-2.32.84-3.3,2.45-3.11,5,.45,6.22,1,12.41,1.86,18.58,1,7.08,1.91,14.19,4.12,21.05a3.41,3.41,0,0,0,2.11,2.38c3.26,1.28,6.57,1,9.87.32a4.51,4.51,0,0,0,4-4.81,21.55,21.55,0,0,1,.38-3c1.3-9.32,5.46-16.71,14.26-20.93a2,2,0,0,0,1.26-2.21,42.22,42.22,0,0,1,1-11.37c.58-2.42-.18-3.81-2.49-4.79-2.79-1.18-5.44-.45-8,.49A22,22,0,0,0,974.22,487.88Zm73-34.44a3.39,3.39,0,0,1-.7-2.25c0-.66-.29-1.22-1-1.25s-1.16.55-1.15,1.27a11.76,11.76,0,0,0,.26,2.44c.36,1.43.2,1.87-1.46,1.35-5.38-1.67-11.8,2.57-12.17,8-.26,3.68-.29,7.38-.52,11.07-.09,1.41.25,1.83,1.77,1.93,4.93.3,9.59,1.6,13.46,4.86.84.71,1.26.6,2,0a35.1,35.1,0,0,1,21.92-7.7c1.52,0,1.68-.41,1.43-1.81-.64-3.6-2.45-6.84-2.85-10.51-.81-7.24-8.42-9.73-14-8-1.22.38-1.7.52-1.25-1,.21-.7.11-1.31-.71-1.52a1.16,1.16,0,0,0-1.55,1c-.23,1-.38,2-.57,3.06a14.24,14.24,0,0,1-.34-5.24c0-.62.19-1.37-.71-1.55s-1.21.36-1.54,1.08C1046.91,450.24,1047.43,451.84,1047.22,453.44Z" transform="translate(-392.46 -224.92)"/><path class="cls-8" d="M884.54,449.59c.07,7.36-1.24,14.61-1.93,21.92a199.58,199.58,0,0,0-.45,25.88c.09,2.37.6,2.73,3.15,3.1a22.17,22.17,0,0,1,9.47,3.44,2.29,2.29,0,0,1,1.16,1.81,29.77,29.77,0,0,0,3.69,11.49,1.86,1.86,0,0,1-.12,2c-1.73,3.53-4.91,5.13-8.46,6A68.7,68.7,0,0,1,865,526.54c-4.11-.62-8.22-1.49-11.84-3.67-5.12-3.07-6.67-8.13-7.53-13.64-1.44-9.23-.21-18.29,1.52-27.3a137.44,137.44,0,0,1,10.58-33.28c2.51-5.28,5.73-10.08,10.88-13.24,2.52-1.55,2.52-2.52,0-4.35-2.07-1.52-3.26-1.47-5.17.2a3.88,3.88,0,0,1-5.37-.34,3.75,3.75,0,0,1,.32-5.35,3.66,3.66,0,0,1,5.34.32,3.19,3.19,0,0,0,2.62,1.29,8.73,8.73,0,0,1,6.79,5,1.81,1.81,0,0,0,2,1.13c4.94-.11,7.2.93,8.6,6.3A38.05,38.05,0,0,1,884.54,449.59Zm-11.13,1.61a17.6,17.6,0,0,0-.35-2.69c-.38-1.36-.92-2.72-2.52-3.11s-2.68.54-3.67,1.59a14.91,14.91,0,0,0-3.27,6.91c-.76,3.15-1.27,6.33-.34,9.55a3.84,3.84,0,0,0,3.13,3,3.4,3.4,0,0,0,3.39-1.74,8.49,8.49,0,0,0,1.09-1.79A35.83,35.83,0,0,0,873.41,451.2Zm9.6,4.12a15.37,15.37,0,0,0,0-2.8c-.36-2-.85-4-3.09-4.72-1.4-.45-3.42,1-4.55,3.26-1.75,3.57-2.31,7.46-2.68,11.37a9.38,9.38,0,0,0,.43,4,3.39,3.39,0,0,0,5.65,1.54,8.79,8.79,0,0,0,2.14-3A21,21,0,0,0,883,455.32Z" transform="translate(-392.46 -224.92)"/><path class="cls-8" d="M1100.72,517c.24,3.63-.32,4.69-3.92,6.35-2.38,1.1-4.89,2.08-7.61,1.46a3.5,3.5,0,0,1-2.77-2.43c-.38-1.27-.91-1-1.75-.35a23.93,23.93,0,0,1-16.1,4.9c-6-.34-11.7-1.75-16.42-5.76-6.18-5.26-8.75-12.13-8.23-20,.71-10.8,6.72-17.83,16.66-21.54a26,26,0,0,1,16.28-.56c11.55,3.21,17.84,11.35,20.89,22.43A84.6,84.6,0,0,1,1100.72,517Zm-30.25-4.49c5.32,0,8.9-3.49,8.84-8.56,0-4.48-4.21-8.36-8.94-8.34a8.8,8.8,0,0,0-8.91,8.55A8.65,8.65,0,0,0,1070.47,512.54Z" transform="translate(-392.46 -224.92)"/><path class="cls-8" d="M900.78,503.53c0-11.15,6.27-19.95,16-23.58,13.23-4.92,27.14.13,34.44,12.61.91,1.56.78,3.29,1,5a182.39,182.39,0,0,0,3.57,22.41c.43,1.8-.11,2.61-1.67,3.35a20.43,20.43,0,0,1-6.23,1.76c-2,.27-3.5-.66-4.44-2.71-.46-1-.83-1-1.64-.39-6.73,5.12-14.23,6-22.31,4.15-7.43-1.71-13-5.7-16.26-12.65A25.38,25.38,0,0,1,900.78,503.53Zm26.71,9c5.33,0,8.87-3.47,8.81-8.58-.06-4.51-4.19-8.35-8.95-8.32s-9,4-8.9,8.57S922.5,512.56,927.49,512.54Z" transform="translate(-392.46 -224.92)"/><path class="cls-8" d="M998.91,495.18a46.28,46.28,0,0,1,1.07-9.95c.73-3.51,2.83-5.21,6.34-5.39a15.58,15.58,0,0,1,8.52,1.57,3.36,3.36,0,0,1,1.84,2.6,23.48,23.48,0,0,1,.06,5.62,51.54,51.54,0,0,0,.59,14c.28,1.46.54,3.48,2.28,3.6s2.13-1.75,2.64-3.12c1.72-4.64,2.31-9.56,3.45-14.35.41-1.71.92-3.39,1.29-5.11a4.12,4.12,0,0,1,4.39-3.51,17.91,17.91,0,0,1,11.14,3.57,1.86,1.86,0,0,1,.54,2.84,28.09,28.09,0,0,0-4,18,4.36,4.36,0,0,1-.58,2.18c-2.42,5.84-5.48,11.27-10.31,15.51-6.38,5.6-13.39,5.33-19.36-.66-4.39-4.42-6.86-9.87-8.42-15.78A43.25,43.25,0,0,1,998.91,495.18Z" transform="translate(-392.46 -224.92)"/><path class="cls-8" d="M974.22,487.88a22,22,0,0,1,10.16-7.44c2.61-.94,5.26-1.67,8-.49,2.31,1,3.07,2.37,2.49,4.79a42.22,42.22,0,0,0-1,11.37,2,2,0,0,1-1.26,2.21c-8.8,4.22-13,11.61-14.26,20.93a21.55,21.55,0,0,0-.38,3,4.51,4.51,0,0,1-4,4.81c-3.3.71-6.61,1-9.87-.32a3.41,3.41,0,0,1-2.11-2.38c-2.21-6.86-3.13-14-4.12-21.05-.86-6.17-1.41-12.36-1.86-18.58-.19-2.58.79-4.19,3.11-5,4-1.45,8.12-2.28,12.41-1.32a2.35,2.35,0,0,1,1.86,2.06A40,40,0,0,1,974.22,487.88Z" transform="translate(-392.46 -224.92)"/><path class="cls-8" d="M1047.22,453.44c.21-1.6-.31-3.2.41-4.75.33-.72.67-1.26,1.54-1.08s.73.93.71,1.55a14.24,14.24,0,0,0,.34,5.24c.19-1,.34-2,.57-3.06a1.16,1.16,0,0,1,1.55-1c.82.21.92.82.71,1.52-.45,1.48,0,1.34,1.25,1,5.57-1.73,13.18.76,14,8,.4,3.67,2.21,6.91,2.85,10.51.25,1.4.09,1.78-1.43,1.81a35.1,35.1,0,0,0-21.92,7.7c-.78.63-1.2.74-2,0-3.87-3.26-8.53-4.56-13.46-4.86-1.52-.1-1.86-.52-1.77-1.93.23-3.69.26-7.39.52-11.07.37-5.43,6.79-9.67,12.17-8,1.66.52,1.82.08,1.46-1.35a11.76,11.76,0,0,1-.26-2.44c0-.72.37-1.31,1.15-1.27s1,.59,1,1.25A3.39,3.39,0,0,0,1047.22,453.44Zm2.86,16.83c.72,2.41,1.58,1.93,2.65,1.08a13.65,13.65,0,0,1,4.63-2.37c3-.9,5.94-1.49,9-.29,1.28.5,1.37-.14,1.31-1.15a8.54,8.54,0,0,0-7.08-7.86c-3.94-.59-8.59,2-9.9,5.49-.35.95-.55,1.54.95,1.17a1.75,1.75,0,0,1,2.19,1.74,1.81,1.81,0,0,1-1.5,2.07c-1.12.18-2.28,0-2.56-1.45a7.49,7.49,0,0,0-6-6.33,9.22,9.22,0,0,0-9.83,3.05c-.64.73-1.18,1.35.48,1.6a1.72,1.72,0,0,1,1.32,2.44,1.84,1.84,0,0,1-2.33,1.32c-.31-.06-.58-.49-.94-.12-.08,2.45-.06,2.48,2.12,1.57a17.62,17.62,0,0,1,13.23-.36C1049,472.31,1049.94,472.85,1050.08,470.27Z" transform="translate(-392.46 -224.92)"/><path class="cls-5" d="M873.41,451.2a35.83,35.83,0,0,1-2.54,11.69,8.49,8.49,0,0,1-1.09,1.79,3.4,3.4,0,0,1-3.39,1.74,3.84,3.84,0,0,1-3.13-3c-.93-3.22-.42-6.4.34-9.55a14.91,14.91,0,0,1,3.27-6.91c1-1.05,2.08-2,3.67-1.59s2.14,1.75,2.52,3.11A17.6,17.6,0,0,1,873.41,451.2Zm-4.83,5.87c.18,1,.65,1.88,1.88,1.8a1.8,1.8,0,0,0,1.79-2,1.73,1.73,0,0,0-1.88-1.85C869.2,455.1,868.66,455.88,868.58,457.07Z" transform="translate(-392.46 -224.92)"/><path class="cls-5" d="M883,455.32a21,21,0,0,1-2.13,9.67,8.79,8.79,0,0,1-2.14,3,3.39,3.39,0,0,1-5.65-1.54,9.38,9.38,0,0,1-.43-4c.37-3.91.93-7.8,2.68-11.37,1.13-2.3,3.15-3.71,4.55-3.26,2.24.72,2.73,2.73,3.09,4.72A15.37,15.37,0,0,1,883,455.32Zm-4.58,4.05c.18.95.65,1.76,1.91,1.68a1.77,1.77,0,0,0,1.75-2,1.72,1.72,0,0,0-1.89-1.82C879,457.31,878.49,458.1,878.43,459.37Z" transform="translate(-392.46 -224.92)"/><path class="cls-6" d="M1070.47,512.54a8.65,8.65,0,0,1-9-8.35,8.8,8.8,0,0,1,8.91-8.55c4.73,0,8.89,3.86,8.94,8.34C1079.37,509.05,1075.79,512.51,1070.47,512.54Z" transform="translate(-392.46 -224.92)"/><path class="cls-6" d="M927.49,512.54c-5,0-9-3.66-9-8.33s4.06-8.54,8.9-8.57,8.89,3.81,8.95,8.32C936.36,509.07,932.82,512.51,927.49,512.54Z" transform="translate(-392.46 -224.92)"/><path class="cls-5" d="M1050.08,470.27c-.14,2.58-1.08,2-2.32,1.6a17.62,17.62,0,0,0-13.23.36c-2.18.91-2.2.88-2.12-1.57.36-.37.63.06.94.12a1.84,1.84,0,0,0,2.33-1.32,1.72,1.72,0,0,0-1.32-2.44c-1.66-.25-1.12-.87-.48-1.6a9.22,9.22,0,0,1,9.83-3.05,7.49,7.49,0,0,1,6,6.33c.28,1.48,1.44,1.63,2.56,1.45a1.81,1.81,0,0,0,1.5-2.07,1.75,1.75,0,0,0-2.19-1.74c-1.5.37-1.3-.22-.95-1.17,1.31-3.5,6-6.08,9.9-5.49a8.54,8.54,0,0,1,7.08,7.86c.06,1,0,1.65-1.31,1.15-3-1.2-6-.61-9,.29a13.65,13.65,0,0,0-4.63,2.37C1051.66,472.2,1050.8,472.68,1050.08,470.27Z" transform="translate(-392.46 -224.92)"/><path class="cls-8" d="M868.58,457.07c.08-1.19.62-2,1.79-2a1.73,1.73,0,0,1,1.88,1.85,1.8,1.8,0,0,1-1.79,2C869.23,459,868.76,458.09,868.58,457.07Z" transform="translate(-392.46 -224.92)"/><path class="cls-8" d="M878.43,459.37c.06-1.27.6-2.06,1.77-2.13a1.72,1.72,0,0,1,1.89,1.82,1.77,1.77,0,0,1-1.75,2C879.08,461.13,878.61,460.32,878.43,459.37Z" transform="translate(-392.46 -224.92)"/><path class="cls-6" d="M473.35,814.14a26,26,0,0,1,4.85-.43c2.65,0,4.36.46,5.64,1.5a4.3,4.3,0,0,1,1.71,3.63,4.88,4.88,0,0,1-3.48,4.52v.06a5.31,5.31,0,0,1,4.25,5.16,5.58,5.58,0,0,1-1.74,4.12c-1.44,1.31-3.76,1.92-7.11,1.92a31.52,31.52,0,0,1-4.12-.24Zm2.65,8.43h2.41c2.81,0,4.46-1.47,4.46-3.45,0-2.41-1.83-3.36-4.52-3.36a11.61,11.61,0,0,0-2.35.18Zm0,9.85a14.44,14.44,0,0,0,2.23.12c2.75,0,5.28-1,5.28-4,0-2.81-2.41-4-5.31-4H476Z" transform="translate(-392.46 -224.92)"/><path class="cls-6" d="M502.16,830.41c0,1.52,0,2.87.12,4H499.9l-.15-2.41h-.07a5.54,5.54,0,0,1-4.88,2.74c-2.32,0-5.09-1.28-5.09-6.47v-8.63h2.68v8.17c0,2.81.86,4.7,3.3,4.7a3.88,3.88,0,0,0,3.54-2.44,3.93,3.93,0,0,0,.24-1.37v-9.06h2.69Z" transform="translate(-392.46 -224.92)"/><path class="cls-6" d="M506.61,824.27c0-1.74,0-3.23-.12-4.6h2.35l.09,2.9h.12a4.44,4.44,0,0,1,4.09-3.24,3,3,0,0,1,.77.09V822a3.6,3.6,0,0,0-.92-.1c-1.89,0-3.23,1.44-3.6,3.45a7.8,7.8,0,0,0-.12,1.25v7.88h-2.66Z" transform="translate(-392.46 -224.92)"/><path class="cls-6" d="M516.71,823.66c0-1.52,0-2.77-.12-4H519l.16,2.44h.06a5.42,5.42,0,0,1,4.88-2.78c2,0,5.22,1.22,5.22,6.29v8.82H526.6v-8.52c0-2.38-.88-4.36-3.42-4.36a3.83,3.83,0,0,0-3.6,2.74,4,4,0,0,0-.18,1.26v8.88h-2.69Z" transform="translate(-392.46 -224.92)"/><path class="cls-6" d="M535.15,827.54c.06,3.63,2.38,5.13,5.06,5.13a9.61,9.61,0,0,0,4.09-.77l.46,1.93a12,12,0,0,1-4.91.94c-4.55,0-7.27-3-7.27-7.47s2.63-8,6.93-8c4.82,0,6.11,4.24,6.11,7a9.94,9.94,0,0,1-.1,1.25Zm7.87-1.92c0-1.71-.7-4.37-3.72-4.37-2.72,0-3.91,2.5-4.12,4.37Z" transform="translate(-392.46 -224.92)"/><path class="cls-6" d="M561.7,812.77v17.85c0,1.31,0,2.81.12,3.82h-2.41l-.12-2.57h-.06a5.48,5.48,0,0,1-5,2.9c-3.57,0-6.31-3-6.31-7.51,0-4.91,3-7.93,6.62-7.93a4.93,4.93,0,0,1,4.45,2.26H559v-8.82ZM559,825.68a4.77,4.77,0,0,0-.12-1.13,3.94,3.94,0,0,0-3.87-3.11c-2.78,0-4.43,2.44-4.43,5.7,0,3,1.47,5.47,4.37,5.47a4,4,0,0,0,3.93-3.21,4.7,4.7,0,0,0,.12-1.16Z" transform="translate(-392.46 -224.92)"/><path class="cls-6" d="M583.61,816.86H576l-.76,5.1a9.51,9.51,0,0,1,1.62-.13,8.41,8.41,0,0,1,4.27,1.07A5.66,5.66,0,0,1,584,828c0,3.87-3.08,6.77-7.39,6.77a9.73,9.73,0,0,1-4.94-1.22l.67-2a8.88,8.88,0,0,0,4.24,1.1c2.54,0,4.7-1.65,4.7-4.31s-1.74-4.39-5.7-4.39a20.88,20.88,0,0,0-2.75.21l1.28-9.52h9.49Z" transform="translate(-392.46 -224.92)"/><path class="cls-6" d="M599.27,816.86H591.7l-.76,5.1a9.42,9.42,0,0,1,1.62-.13,8.41,8.41,0,0,1,4.27,1.07,5.68,5.68,0,0,1,2.84,5.1c0,3.87-3.09,6.77-7.39,6.77a9.67,9.67,0,0,1-4.94-1.22l.67-2a8.84,8.84,0,0,0,4.24,1.1c2.53,0,4.7-1.65,4.7-4.31s-1.74-4.39-5.71-4.39a20.71,20.71,0,0,0-2.74.21l1.28-9.52h9.49Z" transform="translate(-392.46 -224.92)"/><path class="cls-6" d="M605.07,834.77a1.92,1.92,0,1,1,1.86-1.92,1.79,1.79,0,0,1-1.86,1.92Z" transform="translate(-392.46 -224.92)"/><path class="cls-6" d="M610,831.35a9,9,0,0,0,4.4,1.26c3.45,0,4.51-2.2,4.48-3.85,0-2.78-2.53-4-5.12-4h-1.5v-2h1.5c2,0,4.42-1,4.42-3.36,0-1.59-1-3-3.48-3a7.33,7.33,0,0,0-4,1.31l-.7-2a9.46,9.46,0,0,1,5.19-1.53c3.91,0,5.68,2.32,5.68,4.74,0,2-1.22,3.78-3.66,4.66v.06a5.17,5.17,0,0,1,4.42,5.1c0,3.18-2.47,5.95-7.23,5.95a10.11,10.11,0,0,1-5.16-1.34Z" transform="translate(-392.46 -224.92)"/><path class="cls-6" d="M636.38,816.49a9.81,9.81,0,0,0-2,.12,8.07,8.07,0,0,0-6.9,7h.09a5.91,5.91,0,0,1,4.79-2.28c3.51,0,6,2.53,6,6.4,0,3.64-2.47,7-6.59,7s-7-3.29-7-8.45a12.47,12.47,0,0,1,3.36-8.94,10.74,10.74,0,0,1,6.35-2.93,13.25,13.25,0,0,1,2-.16Zm-4.61,16.21c2.29,0,3.85-1.93,3.85-4.76s-1.62-4.55-4.09-4.55a4.44,4.44,0,0,0-3.85,2.44,2.32,2.32,0,0,0-.3,1.19c.06,3.27,1.55,5.68,4.36,5.68Z" transform="translate(-392.46 -224.92)"/><path class="cls-6" d="M652.55,816.86H645l-.77,5.1a9.51,9.51,0,0,1,1.62-.13,8.39,8.39,0,0,1,4.27,1.07A5.66,5.66,0,0,1,653,828c0,3.87-3.08,6.77-7.38,6.77a9.74,9.74,0,0,1-5-1.22l.67-2a8.92,8.92,0,0,0,4.25,1.1c2.53,0,4.7-1.65,4.7-4.31s-1.74-4.39-5.71-4.39a20.88,20.88,0,0,0-2.75.21l1.28-9.52h9.49Z" transform="translate(-392.46 -224.92)"/><path class="cls-6" d="M660.73,814.26c2.75,0,4.58,2.14,4.58,5.92,0,4.19-2.19,6.26-4.76,6.26s-4.61-2-4.64-6,2.17-6.2,4.79-6.2Zm-.15,1.62c-1.65,0-2.53,2-2.53,4.49s.88,4.45,2.56,4.45,2.57-1.89,2.57-4.51c0-2.41-.71-4.43-2.57-4.43Zm-.21,18.92L672,814.23h1.71L662.05,834.8Zm13.3-12.33c2.75,0,4.55,2.14,4.55,5.92,0,4.19-2.2,6.26-4.73,6.26s-4.61-2-4.64-5.95,2.17-6.23,4.79-6.23Zm-.15,1.62c-1.65,0-2.56,2-2.56,4.49s.94,4.45,2.59,4.45,2.57-1.89,2.57-4.51c0-2.41-.71-4.43-2.57-4.43Z" transform="translate(-392.46 -224.92)"/><path class="cls-6" d="M436.17,365.76,434,372.23h-2.74l7-20.57h3.2l7,20.57h-2.84l-2.2-6.47Zm6.74-2.07-2-5.92c-.46-1.35-.76-2.57-1.07-3.76h-.06c-.3,1.22-.64,2.48-1,3.73l-2,5.95Z" transform="translate(-392.46 -224.92)"/><path class="cls-6" d="M454.33,353.31a1.67,1.67,0,0,1-3.33,0,1.64,1.64,0,0,1,1.68-1.68A1.6,1.6,0,0,1,454.33,353.31Zm-3,18.92V357.46H454v14.77Z" transform="translate(-392.46 -224.92)"/><path class="cls-6" d="M458.48,362.07c0-1.74,0-3.24-.12-4.61h2.35l.09,2.9h.12a4.43,4.43,0,0,1,4.09-3.23,2.88,2.88,0,0,1,.76.09v2.53a4.06,4.06,0,0,0-.91-.09c-1.89,0-3.24,1.43-3.6,3.45a7.58,7.58,0,0,0-.12,1.25v7.87h-2.66Z" transform="translate(-392.46 -224.92)"/><path class="cls-6" d="M480.91,350.56v17.86c0,1.31,0,2.81.12,3.81h-2.41l-.12-2.56h-.06a5.46,5.46,0,0,1-5,2.9c-3.57,0-6.31-3-6.31-7.51,0-4.91,3-7.93,6.62-7.93a4.92,4.92,0,0,1,4.45,2.25h.07v-8.82Zm-2.68,12.91a4.41,4.41,0,0,0-.13-1.13,4,4,0,0,0-3.87-3.11c-2.78,0-4.43,2.44-4.43,5.71,0,3,1.47,5.46,4.37,5.46a4,4,0,0,0,3.93-3.2,4.34,4.34,0,0,0,.13-1.16Z" transform="translate(-392.46 -224.92)"/><path class="cls-6" d="M485.37,362.07c0-1.74,0-3.24-.12-4.61h2.35l.09,2.9h.12a4.43,4.43,0,0,1,4.09-3.23,2.93,2.93,0,0,1,.76.09v2.53a4.06,4.06,0,0,0-.91-.09c-1.9,0-3.24,1.43-3.6,3.45a6.58,6.58,0,0,0-.13,1.25v7.87h-2.65Z" transform="translate(-392.46 -224.92)"/><path class="cls-6" d="M508.41,364.72c0,5.47-3.78,7.85-7.36,7.85-4,0-7.08-2.93-7.08-7.6,0-4.94,3.24-7.84,7.33-7.84S508.41,360.21,508.41,364.72Zm-11.72.16c0,3.23,1.86,5.67,4.49,5.67s4.48-2.41,4.48-5.73c0-2.51-1.25-5.68-4.42-5.68S496.69,362.07,496.69,364.88Z" transform="translate(-392.46 -224.92)"/><path class="cls-6" d="M511.8,362.28c0-1.89-.06-3.41-.12-4.82h2.41l.12,2.54h.06a5.79,5.79,0,0,1,5.25-2.87c3.57,0,6.25,3,6.25,7.5,0,5.31-3.23,7.94-6.71,7.94a5.21,5.21,0,0,1-4.55-2.32h-.06v8H511.8Zm2.65,3.94a5.35,5.35,0,0,0,.13,1.1,4.13,4.13,0,0,0,4,3.14c2.84,0,4.49-2.32,4.49-5.7,0-3-1.56-5.5-4.4-5.5a4.27,4.27,0,0,0-4.05,3.33,4,4,0,0,0-.19,1.1Z" transform="translate(-392.46 -224.92)"/><path class="cls-6" d="M548,362.1c0,6.74-2.5,10.47-6.89,10.47-3.88,0-6.5-3.63-6.57-10.19s2.87-10.32,6.9-10.32C545.58,352.06,548,355.78,548,362.1Zm-10.77.31c0,5.15,1.59,8.08,4,8.08,2.74,0,4.06-3.2,4.06-8.27,0-4.88-1.25-8.08-4-8.08C538.9,354.14,537.19,357,537.19,362.41Z" transform="translate(-392.46 -224.92)"/><path class="cls-6" d="M552.42,372.57a1.93,1.93,0,1,1,1.86-1.92,1.79,1.79,0,0,1-1.86,1.92Z" transform="translate(-392.46 -224.92)"/><path class="cls-6" d="M562.58,354.9h-.06l-3.45,1.86-.52-2.05,4.34-2.31h2.29v19.83h-2.6Z" transform="translate(-392.46 -224.92)"/><path class="cls-6" d="M576.77,352.06c2.75,0,4.58,2.14,4.58,5.92,0,4.18-2.2,6.26-4.76,6.26s-4.61-2-4.64-6,2.17-6.2,4.79-6.2Zm-.15,1.62c-1.65,0-2.53,2-2.53,4.48s.88,4.46,2.56,4.46,2.56-1.89,2.56-4.52c0-2.41-.7-4.42-2.56-4.42Zm-.21,18.92L588.06,352h1.71L578.09,372.6Zm13.3-12.33c2.75,0,4.55,2.14,4.55,5.92,0,4.18-2.2,6.26-4.73,6.26s-4.61-2-4.64-5.95,2.17-6.23,4.79-6.23Zm-.15,1.62c-1.65,0-2.56,2-2.56,4.48s.94,4.46,2.59,4.46,2.56-1.89,2.56-4.52c0-2.41-.7-4.42-2.56-4.42Z" transform="translate(-392.46 -224.92)"/><path class="cls-6" d="M463.17,236.53h2.66v18.34h8.79v2.23H463.17Z" transform="translate(-392.46 -224.92)"/><path class="cls-6" d="M480.48,238.18a1.67,1.67,0,0,1-3.33,0,1.63,1.63,0,0,1,1.68-1.68A1.59,1.59,0,0,1,480.48,238.18Zm-3,18.92V242.33h2.68V257.1Z" transform="translate(-392.46 -224.92)"/><path class="cls-6" d="M494.7,254.81h-.06a5.26,5.26,0,0,1-4.82,2.63c-3.45,0-6.26-3-6.26-7.48,0-5.52,3.57-8,6.68-8a4.85,4.85,0,0,1,4.55,2.57h.06l.09-2.23h2.54c-.06,1.25-.1,2.53-.1,4.06v16.75H494.7Zm0-6.5a4.72,4.72,0,0,0-.12-1.13,3.92,3.92,0,0,0-3.85-3.05c-2.78,0-4.45,2.35-4.45,5.68,0,2.93,1.4,5.49,4.36,5.49a4,4,0,0,0,3.85-2.93,4.57,4.57,0,0,0,.21-1.28Z" transform="translate(-392.46 -224.92)"/><path class="cls-6" d="M514.17,253.07c0,1.53,0,2.87.12,4h-2.38l-.15-2.41h-.06a5.56,5.56,0,0,1-4.88,2.75c-2.32,0-5.1-1.29-5.1-6.47v-8.64h2.68v8.18c0,2.81.86,4.7,3.3,4.7a3.88,3.88,0,0,0,3.54-2.44,4,4,0,0,0,.24-1.38v-9.06h2.69Z" transform="translate(-392.46 -224.92)"/><path class="cls-6" d="M521.62,238.18a1.67,1.67,0,0,1-3.33,0A1.63,1.63,0,0,1,520,236.5,1.59,1.59,0,0,1,521.62,238.18Zm-3,18.92V242.33h2.68V257.1Z" transform="translate(-392.46 -224.92)"/><path class="cls-6" d="M538.52,235.43v17.86c0,1.31,0,2.8.13,3.81h-2.41l-.13-2.56h-.06a5.47,5.47,0,0,1-5,2.9c-3.57,0-6.32-3-6.32-7.51,0-4.91,3-7.94,6.62-7.94a4.94,4.94,0,0,1,4.46,2.26h.06v-8.82Zm-2.68,12.91a4.88,4.88,0,0,0-.12-1.13,4,4,0,0,0-3.88-3.11c-2.78,0-4.42,2.44-4.42,5.71,0,3,1.46,5.46,4.36,5.46a4,4,0,0,0,3.94-3.2,4.8,4.8,0,0,0,.12-1.16Z" transform="translate(-392.46 -224.92)"/><path class="cls-6" d="M546,238.18a1.66,1.66,0,0,1-3.32,0,1.63,1.63,0,0,1,1.67-1.68A1.59,1.59,0,0,1,546,238.18Zm-3,18.92V242.33h2.69V257.1Z" transform="translate(-392.46 -224.92)"/><path class="cls-6" d="M553.36,238.79v3.54h3.84v2h-3.84v8c0,1.83.52,2.87,2,2.87a5.15,5.15,0,0,0,1.56-.18l.12,2a6.53,6.53,0,0,1-2.38.4,3.75,3.75,0,0,1-2.9-1.16c-.76-.8-1-2.11-1-3.85v-8.05h-2.29v-2h2.29v-2.72Z" transform="translate(-392.46 -224.92)"/><path class="cls-6" d="M561.48,242.33l3.23,8.73c.34,1,.7,2.13.95,3h.06c.27-.89.58-2,.94-3.08l2.93-8.67h2.84l-4,10.53c-1.92,5.06-3.23,7.66-5.06,9.25a7.32,7.32,0,0,1-3.3,1.73l-.67-2.25a7.08,7.08,0,0,0,2.35-1.32,8.11,8.11,0,0,0,2.26-3,1.87,1.87,0,0,0,.21-.64,2.42,2.42,0,0,0-.18-.7l-5.46-13.61Z" transform="translate(-392.46 -224.92)"/><path class="cls-6" d="M586.32,239.77h-.06l-3.45,1.86-.52-2,4.33-2.32h2.29V257.1h-2.59Z" transform="translate(-392.46 -224.92)"/><path class="cls-6" d="M604.45,257.1v-5.4h-9.22v-1.77l8.85-12.67H607v12.33h2.78v2.11H607v5.4Zm0-7.51V243c0-1,0-2.07.09-3.11h-.09c-.61,1.16-1.1,2-1.65,2.93L598,249.53v.06Z" transform="translate(-392.46 -224.92)"/><path class="cls-6" d="M613.79,257.44a1.93,1.93,0,0,1,.06-3.85,1.93,1.93,0,0,1,0,3.85Z" transform="translate(-392.46 -224.92)"/><path class="cls-6" d="M630,239.52h-7.57l-.76,5.1a10.76,10.76,0,0,1,1.62-.12,8.31,8.31,0,0,1,4.27,1.07,5.65,5.65,0,0,1,2.84,5.09c0,3.88-3.09,6.78-7.39,6.78a9.67,9.67,0,0,1-4.94-1.22l.67-2.05a8.84,8.84,0,0,0,4.24,1.1c2.53,0,4.7-1.65,4.7-4.3s-1.74-4.4-5.71-4.4a18.93,18.93,0,0,0-2.74.22l1.28-9.53H630Z" transform="translate(-392.46 -224.92)"/><path class="cls-6" d="M634.42,254a8.93,8.93,0,0,0,4.39,1.25c3.45,0,4.52-2.2,4.49-3.85,0-2.77-2.54-4-5.13-4h-1.5v-2h1.5c2,0,4.42-1,4.42-3.35,0-1.59-1-3-3.47-3a7.28,7.28,0,0,0-4,1.32l-.7-2a9.42,9.42,0,0,1,5.18-1.52c3.91,0,5.68,2.32,5.68,4.73,0,2-1.22,3.78-3.66,4.67v.06a5.17,5.17,0,0,1,4.42,5.1c0,3.17-2.47,5.95-7.23,5.95a10.1,10.1,0,0,1-5.16-1.35Z" transform="translate(-392.46 -224.92)"/><path class="cls-6" d="M661.27,239.52H653.7l-.76,5.1a10.88,10.88,0,0,1,1.62-.12,8.31,8.31,0,0,1,4.27,1.07,5.63,5.63,0,0,1,2.84,5.09c0,3.88-3.08,6.78-7.39,6.78a9.73,9.73,0,0,1-4.94-1.22l.67-2.05a8.84,8.84,0,0,0,4.24,1.1c2.54,0,4.7-1.65,4.7-4.3s-1.74-4.4-5.7-4.4a19.09,19.09,0,0,0-2.75.22l1.28-9.53h9.49Z" transform="translate(-392.46 -224.92)"/><path class="cls-6" d="M669.45,236.93c2.75,0,4.58,2.13,4.58,5.92,0,4.18-2.2,6.25-4.76,6.25s-4.61-2-4.64-6,2.17-6.19,4.79-6.19Zm-.15,1.62c-1.65,0-2.53,2-2.53,4.48s.88,4.46,2.56,4.46,2.56-1.89,2.56-4.52c0-2.41-.7-4.42-2.56-4.42Zm-.21,18.92,11.65-20.57h1.71l-11.69,20.57Zm13.3-12.33c2.75,0,4.55,2.13,4.55,5.92,0,4.18-2.2,6.25-4.73,6.25s-4.61-2-4.64-5.95,2.17-6.22,4.79-6.22Zm-.15,1.61c-1.65,0-2.57,2-2.57,4.49s1,4.46,2.6,4.46,2.56-1.9,2.56-4.52c0-2.41-.7-4.43-2.56-4.43Z" transform="translate(-392.46 -224.92)"/><path class="cls-6" d="M1310.1,252a30,30,0,0,1,5.1-.4c2.62,0,4.55.61,5.77,1.71a5.55,5.55,0,0,1,1.8,4.3,6.07,6.07,0,0,1-1.59,4.4,8.53,8.53,0,0,1-6.29,2.25,9.25,9.25,0,0,1-2.13-.18v8.24h-2.66Zm2.66,9.91a8.49,8.49,0,0,0,2.19.22c3.21,0,5.16-1.56,5.16-4.4s-1.92-4-4.85-4a11.25,11.25,0,0,0-2.5.21Z" transform="translate(-392.46 -224.92)"/><path class="cls-6" d="M1325.76,262.2c0-1.74,0-3.24-.12-4.61H1328l.09,2.9h.12a4.43,4.43,0,0,1,4.09-3.24,2.54,2.54,0,0,1,.76.1v2.53a4.06,4.06,0,0,0-.91-.09c-1.9,0-3.24,1.43-3.6,3.45a6.58,6.58,0,0,0-.13,1.25v7.87h-2.65Z" transform="translate(-392.46 -224.92)"/><path class="cls-6" d="M1336.93,265.46c.06,3.63,2.38,5.13,5.07,5.13a9.77,9.77,0,0,0,4.08-.76l.46,1.92a11.76,11.76,0,0,1-4.91.95c-4.55,0-7.26-3-7.26-7.48s2.62-8,6.92-8c4.83,0,6.11,4.25,6.11,7a8.21,8.21,0,0,1-.1,1.25Zm7.87-1.92c0-1.71-.7-4.36-3.72-4.36-2.72,0-3.91,2.5-4.12,4.36Z" transform="translate(-392.46 -224.92)"/><path class="cls-6" d="M1350.36,269.61a7,7,0,0,0,3.54,1.07c1.95,0,2.87-1,2.87-2.2s-.77-2-2.75-2.71c-2.65-.95-3.91-2.41-3.91-4.18,0-2.38,1.93-4.34,5.1-4.34a7.32,7.32,0,0,1,3.63.92l-.67,1.95a5.82,5.82,0,0,0-3-.85c-1.59,0-2.47.91-2.47,2s.88,1.77,2.8,2.51c2.57,1,3.88,2.25,3.88,4.45,0,2.59-2,4.46-5.52,4.46a8.39,8.39,0,0,1-4.15-1Z" transform="translate(-392.46 -224.92)"/><path class="cls-6" d="M1373.19,268.82a21.18,21.18,0,0,0,.24,3.54H1371l-.21-1.86h-.1a5.49,5.49,0,0,1-4.51,2.2,4.22,4.22,0,0,1-4.52-4.25c0-3.57,3.17-5.52,8.88-5.49v-.3c0-1.23-.33-3.42-3.36-3.42a7.37,7.37,0,0,0-3.84,1.1l-.61-1.77a9.1,9.1,0,0,1,4.85-1.32c4.52,0,5.62,3.09,5.62,6.05Zm-2.6-4c-2.93-.06-6.25.46-6.25,3.33a2.37,2.37,0,0,0,2.53,2.56,3.68,3.68,0,0,0,3.57-2.47,2.82,2.82,0,0,0,.15-.85Z" transform="translate(-392.46 -224.92)"/><path class="cls-6" d="M1377.52,250.69h2.69v21.67h-2.69Z" transform="translate(-392.46 -224.92)"/><path class="cls-6" d="M1386.22,265.46c.06,3.63,2.38,5.13,5.06,5.13a9.79,9.79,0,0,0,4.09-.76l.46,1.92a11.8,11.8,0,0,1-4.91.95c-4.55,0-7.27-3-7.27-7.48s2.63-8,6.93-8c4.82,0,6.1,4.25,6.1,7a10.19,10.19,0,0,1-.09,1.25Zm7.87-1.92c0-1.71-.7-4.36-3.72-4.36-2.72,0-3.91,2.5-4.12,4.36Z" transform="translate(-392.46 -224.92)"/><path class="cls-6" d="M1406.27,269.28a8.93,8.93,0,0,0,4.39,1.25c3.45,0,4.52-2.2,4.49-3.85,0-2.77-2.53-4-5.13-4h-1.49v-2H1410c2,0,4.43-1,4.43-3.35,0-1.59-1-3-3.48-3a7.31,7.31,0,0,0-4,1.32l-.7-2a9.46,9.46,0,0,1,5.19-1.52c3.9,0,5.67,2.32,5.67,4.73,0,2-1.22,3.78-3.66,4.67v.06a5.18,5.18,0,0,1,4.43,5.1c0,3.17-2.47,5.95-7.24,5.95a10.06,10.06,0,0,1-5.15-1.35Z" transform="translate(-392.46 -224.92)"/><path class="cls-6" d="M1434.47,262.23c0,6.74-2.5,10.47-6.9,10.47-3.87,0-6.5-3.64-6.56-10.2s2.87-10.31,6.9-10.31S1434.47,255.91,1434.47,262.23Zm-10.77.3c0,5.16,1.58,8.09,4,8.09,2.75,0,4.06-3.2,4.06-8.27,0-4.88-1.25-8.09-4-8.09C1425.4,254.26,1423.7,257.13,1423.7,262.53Z" transform="translate(-392.46 -224.92)"/><path class="cls-6" d="M1441.3,252.19c2.75,0,4.58,2.13,4.58,5.92,0,4.18-2.19,6.25-4.76,6.25s-4.61-2-4.64-6,2.17-6.19,4.79-6.19Zm-.15,1.62c-1.65,0-2.53,2-2.53,4.48s.88,4.46,2.56,4.46,2.57-1.89,2.57-4.52c0-2.41-.71-4.42-2.57-4.42Zm-.21,18.92,11.66-20.57h1.7l-11.68,20.57Zm13.3-12.33c2.75,0,4.55,2.13,4.55,5.92,0,4.18-2.2,6.25-4.73,6.25s-4.61-2-4.64-5.95,2.17-6.22,4.79-6.22Zm-.15,1.61c-1.65,0-2.56,2-2.56,4.49s.94,4.46,2.59,4.46,2.57-1.9,2.57-4.52c0-2.41-.71-4.43-2.57-4.43Z" transform="translate(-392.46 -224.92)"/><path class="cls-5" d="M734.05,423.34c-2-1.06-4-2.11-6-3.16q-36-19-72.06-38.12a14.85,14.85,0,0,0-7.23-1.8q-126.27.08-252.53.06a9.73,9.73,0,0,1-2.09,0c-.65-.11-1.78.76-1.72-1.29s1.15-1.07,1.81-1.23a6.18,6.18,0,0,1,1.49,0q127,0,254-.06a10.88,10.88,0,0,1,5.17,1.36q36.54,19.27,73.14,38.49c2.11,1.12,4.22,2.22,6.34,3.33Z" transform="translate(-392.46 -224.92)"/><circle class="cls-6" cx="341.96" cy="196.74" r="13.18"/></svg>