<svg id="Layer_1" data-name="Layer 1" xmlns="http://www.w3.org/2000/svg" viewBox="0 0 109.81 109.81"><defs><style>.cls-1{fill:#29abe2;}.cls-2{fill:#fff;}</style></defs><circle class="cls-1" cx="54.9" cy="54.9" r="54.9"/><path class="cls-2" d="M927.64,560.87a27.87,27.87,0,0,0,18.84-5.63c-6-.62-10-3.54-12.2-9.18h5.52c-6.22-2.22-9.68-6.4-10.14-13l5.48,1.53.18-.31a13.35,13.35,0,0,1-5.52-10.5,11.41,11.41,0,0,1,1.85-6.71,37.6,37.6,0,0,0,26.91,13.57c-.08-.64-.15-1.16-.21-1.68a13.13,13.13,0,0,1,21.88-11,1.76,1.76,0,0,0,2,.46c1.17-.41,2.39-.71,3.55-1.16s2.19-1,3.28-1.51c-.09,1.67-1.23,3.25-4.87,7.06l6.7-1.82c-.42.58-.78,1.13-1.19,1.65a20.93,20.93,0,0,1-1.39,1.58,10.68,10.68,0,0,1-1.87,1.76c-1.53.95-1.87,2.21-1.9,4-.18,14.66-9.95,31.36-28.24,35.56a37.32,37.32,0,0,1-28.09-4.22C928,561.14,927.82,561,927.64,560.87Z" transform="translate(-905.1 -485.1)"/></svg>